<svg width="60" height="60" viewBox="89 0 31 31" fill="none" xmlns="http://www.w3.org/2000/svg">
<path d="M118.464 16.5158C118.112 15.9085 117.61 15.4461 117.097 14.9797C115.447 13.4985 113.378 12.4483 111.266 11.9703C111.109 11.935 111.007 11.79 111.023 11.6333C111.246 9.60735 111.003 7.53442 110.271 5.59863C110.02 5.71227 109.702 5.88077 109.322 6.12372L109.295 6.14332C110.036 8.19666 110.188 10.395 109.777 12.4836C109.742 12.6678 109.867 12.8441 110.055 12.8715C112.92 13.2791 115.635 14.7525 117.532 16.9978C115.882 18.4124 113.919 19.4626 111.815 19.9799C111.666 20.0151 111.564 20.1523 111.572 20.309C111.701 22.813 111.125 25.3288 109.945 27.5349C117.124 30.1016 122.544 22.8052 118.468 16.5198L118.464 16.5158Z" fill="#FFB71B"></path>
<path d="M110.014 3.84301C107.517 4.92846 105.319 6.86424 103.956 9.17621C103.873 9.31336 103.705 9.37214 103.56 9.30552C101.741 8.4787 99.6725 8.06333 97.6152 8.15346C97.6387 8.42776 97.6897 8.78827 97.7877 9.23107V9.25458C99.9781 9.18404 102.11 9.71697 103.975 10.7554C104.14 10.8455 104.347 10.7828 104.43 10.6104C105.684 8.01239 107.945 5.89243 110.648 4.76779L110.801 5.14006C111.565 7.04449 111.867 9.10959 111.73 11.1355C111.718 11.2883 111.816 11.4255 111.965 11.4686C113.881 11.9858 115.66 12.9185 117.196 14.1959H117.2C117.588 14.529 117.968 14.8738 118.325 15.2461C118.885 14.5447 119.305 13.6552 119.54 12.8401C121.734 6.95829 115.668 1.42132 110.014 3.83909V3.84301Z" fill="#FFB71B"></path>
<path d="M108.322 25.4501L108.342 25.4109C108.248 25.3482 108.157 25.2855 108.067 25.2189C106.374 23.9845 105.085 22.3936 104.223 20.5518C104.145 20.3833 103.937 20.3128 103.773 20.4029C101.222 21.7548 98.1454 22.1741 95.3044 21.4609C95.8099 19.341 96.7739 17.3464 98.1728 15.6849C98.2708 15.5674 98.2747 15.395 98.1768 15.2774C96.6054 13.3338 95.5944 10.963 95.2535 8.46296V8.43945C94.5286 8.62755 93.7762 8.99197 93.1727 9.39558C86.2564 13.949 90.2259 23.3105 98.1337 22.9069C99.9558 22.9069 101.711 22.5346 103.318 21.845C103.467 21.7823 103.643 21.8371 103.722 21.9782C104.705 23.7141 106.132 25.2659 107.844 26.4023C107.985 26.1672 108.154 25.8537 108.326 25.4501H108.322Z" fill="#FFB71B"></path>
<path d="M115.825 16.1358L115.806 16.1201C114.082 17.4603 112.04 18.2793 109.928 18.5418C109.74 18.5653 109.61 18.7377 109.646 18.9258C110.139 21.7629 109.606 24.839 108.027 27.3077L107.698 27.0961C105.95 25.9793 104.52 24.5255 103.443 22.7974C103.36 22.6681 103.2 22.6132 103.055 22.6681C100.727 23.5615 98.1406 23.7967 95.6798 23.3499C95.3153 30.3956 103.478 34.036 108.282 28.6753C110.375 26.4104 111.131 22.8248 110.872 19.8075C110.86 19.6508 110.974 19.498 111.127 19.4627C113.09 19.0591 115.01 18.1735 116.625 16.8842C116.437 16.6805 116.174 16.4258 115.825 16.1358Z" fill="#FFB71B"></path>
<path d="M108.414 2.42115C108.414 2.42115 108.414 2.42115 108.41 2.41723C103.532 -2.93168 95.0008 1.28867 95.902 8.3265C95.902 8.3265 95.902 8.3265 95.902 8.33042C96.2273 10.8775 97.3676 13.3854 99.0408 15.2781C99.1466 15.3996 99.1427 15.5799 99.0408 15.6974C97.7007 17.1747 96.6622 19.0165 96.1175 21.0032C96.384 21.0659 96.7367 21.1286 97.1756 21.1717H97.2148C97.8221 19.0753 98.9899 17.2061 100.553 15.7484C100.691 15.619 100.691 15.4035 100.557 15.2742C100.377 15.0979 100.201 14.9176 100.032 14.7256C98.261 12.8055 97.1325 10.1878 96.9287 7.53494C99.0839 7.35468 101.318 7.66817 103.308 8.47933C103.453 8.53811 103.614 8.48717 103.7 8.35785C105.06 6.26923 106.996 4.57247 109.264 3.47134C109.025 3.10299 108.732 2.7464 108.418 2.42115H108.414Z" fill="#FFB71B"></path>
</svg>